<?xml version="1.0" encoding="utf-8"?>
<!-- Generator: Adobe Illustrator 18.0.0, SVG Export Plug-In . SVG Version: 6.00 Build 0)  -->
<!DOCTYPE svg PUBLIC "-//W3C//DTD SVG 1.1//EN" "http://www.w3.org/Graphics/SVG/1.1/DTD/svg11.dtd" [
	<!ENTITY ns_flows "http://ns.adobe.com/Flows/1.0/">
	<!ENTITY ns_extend "http://ns.adobe.com/Extensibility/1.0/">
	<!ENTITY ns_ai "http://ns.adobe.com/AdobeIllustrator/10.0/">
	<!ENTITY ns_graphs "http://ns.adobe.com/Graphs/1.0/">
]>
<svg version="1.1" id="Layer_1" xmlns:x="&ns_extend;" xmlns:i="&ns_ai;" xmlns:graph="&ns_graphs;"
	 xmlns="http://www.w3.org/2000/svg" xmlns:xlink="http://www.w3.org/1999/xlink" xmlns:a="http://ns.adobe.com/AdobeSVGViewerExtensions/3.0/"
	 x="0px" y="0px" viewBox="0 0 1400 980" enable-background="new 0 0 1400 980" xml:space="preserve">
<g>
	<rect y="0" fill="#FFFFFF" width="1400" height="980"/>
	<g>
		<g>
			<circle fill="#34BBC6" cx="548.9" cy="696.3" r="129.4"/>
			<path fill="#238B93" d="M674,729.4c-0.1-0.1-0.3-0.3-0.4-0.4c-0.3-0.4-0.7-0.8-1.1-1.1c-0.3-0.4-0.7-0.8-1.1-1.1
				c-0.3-0.4-0.7-0.8-1.1-1.1c-0.3-0.4-0.7-0.8-1.1-1.1c-0.3-0.4-0.7-0.8-1.1-1.1c-0.3-0.4-0.7-0.8-1.1-1.1
				c-0.3-0.4-0.7-0.8-1.1-1.1c-0.3-0.4-0.7-0.8-1.1-1.1c-0.3-0.4-0.7-0.8-1.1-1.1c-0.3-0.4-0.7-0.8-1.1-1.1
				c-0.3-0.4-0.7-0.8-1.1-1.1c-0.3-0.4-0.7-0.8-1.1-1.1c-0.3-0.4-0.7-0.8-1.1-1.1c-0.3-0.4-0.7-0.8-1.1-1.1
				c-0.3-0.4-0.7-0.8-1.1-1.1c-0.3-0.4-0.7-0.8-1.1-1.1c-0.3-0.4-0.7-0.8-1.1-1.1c-0.3-0.4-0.7-0.8-1.1-1.1
				c-0.3-0.4-0.7-0.8-1.1-1.1c-0.3-0.4-0.7-0.8-1.1-1.1c-0.3-0.4-0.7-0.8-1.1-1.1c-0.3-0.4-0.7-0.8-1.1-1.1
				c-0.3-0.4-0.7-0.8-1.1-1.1c-0.3-0.4-0.7-0.8-1.1-1.1c-0.3-0.4-0.7-0.8-1.1-1.1c-0.3-0.4-0.7-0.8-1.1-1.1
				c-0.3-0.4-0.7-0.8-1.1-1.1c-0.3-0.4-0.7-0.8-1.1-1.1c-0.3-0.4-0.7-0.8-1.1-1.1c-0.3-0.4-0.7-0.8-1.1-1.1
				c-0.3-0.4-0.7-0.8-1.1-1.1c-0.3-0.4-0.7-0.8-1.1-1.1c-0.3-0.4-0.7-0.8-1.1-1.1c-0.3-0.4-0.7-0.8-1.1-1.1
				c-0.3-0.4-0.7-0.8-1.1-1.1c-0.3-0.4-0.7-0.8-1.1-1.1c-0.3-0.4-0.7-0.8-1.1-1.1c-0.3-0.4-0.7-0.8-1.1-1.1
				c-0.3-0.4-0.7-0.8-1.1-1.1c-0.3-0.4-0.7-0.8-1.1-1.1c-0.3-0.4-0.7-0.8-1.1-1.1c-0.3-0.4-0.7-0.8-1.1-1.1
				c-0.3-0.4-0.7-0.8-1.1-1.1c-0.3-0.4-0.7-0.8-1.1-1.1c-0.3-0.4-0.7-0.8-1.1-1.1c-0.3-0.4-0.7-0.8-1.1-1.1
				c-0.3-0.4-0.7-0.8-1.1-1.1c-0.3-0.4-0.7-0.8-1.1-1.1c-0.3-0.4-0.7-0.8-1.1-1.1c-0.3-0.4-0.7-0.8-1.1-1.1
				c-0.3-0.4-0.7-0.8-1.1-1.1c-0.3-0.4-0.7-0.8-1.1-1.1c-0.3-0.4-0.7-0.8-1.1-1.1c-0.3-0.4-0.7-0.8-1.1-1.1
				c-0.3-0.4-0.7-0.8-1.1-1.1c-0.3-0.4-0.7-0.8-1.1-1.1c-0.3-0.4-0.7-0.8-1.1-1.1c-0.3-0.4-0.7-0.8-1.1-1.1
				c-0.3-0.4-0.7-0.8-1.1-1.1c-0.3-0.4-0.7-0.8-1.1-1.1c-0.3-0.4-0.7-0.8-1.1-1.1c-0.3-0.4-0.7-0.8-1.1-1.1
				c-0.3-0.4-0.7-0.8-1.1-1.1c-0.3-0.4-0.7-0.8-1.1-1.1c-0.3-0.4-0.7-0.8-1.1-1.1c-0.3-0.4-0.7-0.8-1.1-1.1
				c-0.3-0.4-0.7-0.8-1.1-1.1c-0.3-0.4-0.7-0.8-1.1-1.1c-0.3-0.4-0.7-0.8-1.1-1.1c-0.3-0.4-0.7-0.8-1.1-1.1
				c-0.3-0.4-0.7-0.8-1.1-1.1c-0.3-0.4-0.7-0.8-1.1-1.1c-0.3-0.4-0.7-0.8-1.1-1.1c-0.3-0.4-0.7-0.8-1.1-1.1
				c-0.3-0.4-0.7-0.8-1.1-1.1c-0.3-0.4-0.7-0.8-1.1-1.1c-0.3-0.4-0.7-0.8-1.1-1.1c-0.3-0.4-0.7-0.8-1.1-1.1
				c-0.3-0.4-0.7-0.8-1.1-1.1c-0.3-0.4-0.7-0.8-1.1-1.1c-0.3-0.4-0.7-0.8-1.1-1.1c-0.3-0.4-0.7-0.8-1.1-1.1
				c-0.3-0.4-0.7-0.8-1.1-1.1c-0.3-0.4-0.7-0.8-1.1-1.1c-1-1.4-2.6-2.2-4.5-2.2h-55.2c-3.1,0-5.6,2.5-5.6,5.6v113.1
				c0,1.8,0.9,3.4,2.2,4.5c0.3,0.4,0.7,0.8,1.1,1.1c0.3,0.4,0.7,0.8,1.1,1.1c0.3,0.4,0.7,0.8,1.1,1.1c0.3,0.4,0.7,0.8,1.1,1.1
				c0.3,0.4,0.7,0.8,1.1,1.1c0.3,0.4,0.7,0.8,1.1,1.1c0.3,0.4,0.7,0.8,1.1,1.1c0.3,0.4,0.7,0.8,1.1,1.1c0.3,0.4,0.7,0.8,1.1,1.1
				c0.3,0.4,0.7,0.8,1.1,1.1c0.3,0.4,0.7,0.8,1.1,1.1c0.3,0.4,0.7,0.8,1.1,1.1c0.3,0.4,0.7,0.8,1.1,1.1c0.3,0.4,0.7,0.8,1.1,1.1
				c0.3,0.4,0.7,0.8,1.1,1.1c0.3,0.4,0.7,0.8,1.1,1.1c0.3,0.4,0.7,0.8,1.1,1.1c0.3,0.4,0.7,0.8,1.1,1.1c0.3,0.4,0.7,0.8,1.1,1.1
				c0.3,0.4,0.7,0.8,1.1,1.1c0.3,0.4,0.7,0.8,1.1,1.1c0.3,0.4,0.7,0.8,1.1,1.1c0.3,0.4,0.7,0.8,1.1,1.1c0.3,0.4,0.7,0.8,1.1,1.1
				c0.3,0.4,0.7,0.8,1.1,1.1c0.3,0.4,0.7,0.8,1.1,1.1c0.3,0.4,0.7,0.8,1.1,1.1c0.3,0.4,0.7,0.8,1.1,1.1c0.3,0.4,0.7,0.8,1.1,1.1
				c0.3,0.4,0.7,0.8,1.1,1.1c0.3,0.4,0.7,0.8,1.1,1.1c0.3,0.4,0.7,0.8,1.1,1.1c0.3,0.4,0.7,0.8,1.1,1.1c0.3,0.4,0.7,0.8,1.1,1.1
				c0.3,0.4,0.7,0.8,1.1,1.1c0.3,0.4,0.7,0.8,1.1,1.1c0.3,0.4,0.7,0.8,1.1,1.1c0.3,0.4,0.7,0.8,1.1,1.1c0.3,0.4,0.7,0.8,1.1,1.1
				c0.3,0.4,0.7,0.8,1.1,1.1c0.3,0.4,0.7,0.8,1.1,1.1c0.3,0.4,0.7,0.8,1.1,1.1c0.3,0.4,0.7,0.8,1.1,1.1c0.3,0.4,0.7,0.8,1.1,1.1
				c0.3,0.4,0.7,0.8,1.1,1.1c0.3,0.4,0.7,0.8,1.1,1.1c0.3,0.4,0.7,0.8,1.1,1.1c0.3,0.4,0.7,0.8,1.1,1.1c0.3,0.4,0.7,0.8,1.1,1.1
				c0.3,0.4,0.7,0.8,1.1,1.1c0.3,0.4,0.7,0.8,1.1,1.1c0.3,0.4,0.7,0.8,1.1,1.1c0.3,0.4,0.7,0.8,1.1,1.1c0.3,0.4,0.7,0.8,1.1,1.1
				c0.3,0.4,0.7,0.8,1.1,1.1c0.3,0.4,0.7,0.8,1.1,1.1c0.3,0.4,0.7,0.8,1.1,1.1c0.3,0.4,0.7,0.8,1.1,1.1c0,0,0.1,0.1,0.1,0.1
				C626.9,809.6,662.2,774.3,674,729.4z"/>
			<g>
				<rect x="547.9" y="750.2" fill="#FFFFFF" width="3" height="3"/>
				<path fill="#FFFFFF" d="M576.5,634.2h-55.2c-3.1,0-5.6,2.5-5.6,5.6v113.1c0,3.1,2.5,5.6,5.6,5.6h55.2c3.1,0,5.6-2.5,5.6-5.6
					V639.8C582.1,636.7,579.6,634.2,576.5,634.2z M530.9,753.4H526c-0.3,0-0.5-0.2-0.5-0.5c0-0.3,0.2-0.5,0.5-0.5h4.9
					c0.3,0,0.5,0.2,0.5,0.5C531.4,753.2,531.2,753.4,530.9,753.4z M530.9,751.7H526c-0.3,0-0.5-0.2-0.5-0.5c0-0.3,0.2-0.5,0.5-0.5
					h4.9c0.3,0,0.5,0.2,0.5,0.5C531.4,751.5,531.2,751.7,530.9,751.7z M530.9,750H526c-0.3,0-0.5-0.2-0.5-0.5c0-0.3,0.2-0.5,0.5-0.5
					h4.9c0.3,0,0.5,0.2,0.5,0.5C531.4,749.8,531.2,750,530.9,750z M551.9,753.7v0.5H547v-4.9h4.9V753.7z M571.4,755.3l-3.1-3.1
					l3.1-3.1l0.7,0.7l-2.4,2.4l2.4,2.4l0,0L571.4,755.3z M575.8,742.1H522v-99.9h53.7V742.1z"/>
			</g>
		</g>
		<g>
			<circle fill="#CBDB31" cx="1165.4" cy="696.3" r="129.4"/>
			<path fill="#99A824" d="M1294.7,703.2c-0.1-0.1-0.1-0.1-0.2-0.2c-0.3-0.4-0.7-0.8-1.1-1.1c-0.3-0.4-0.7-0.8-1.1-1.1
				c-0.3-0.4-0.7-0.8-1.1-1.1c-0.3-0.4-0.7-0.8-1.1-1.1c-0.3-0.4-0.7-0.8-1.1-1.1c-0.3-0.4-0.7-0.8-1.1-1.1
				c-0.3-0.4-0.7-0.8-1.1-1.1c-0.3-0.4-0.7-0.8-1.1-1.1c-0.3-0.4-0.7-0.8-1.1-1.1c-0.3-0.4-0.7-0.8-1.1-1.1
				c-0.3-0.4-0.7-0.8-1.1-1.1c-0.3-0.4-0.7-0.8-1.1-1.1c-0.3-0.4-0.7-0.8-1.1-1.1c-0.3-0.4-0.7-0.8-1.1-1.1
				c-0.3-0.4-0.7-0.8-1.1-1.1c-0.3-0.4-0.7-0.8-1.1-1.1c-0.3-0.4-0.7-0.8-1.1-1.1c-0.3-0.4-0.7-0.8-1.1-1.1
				c-0.3-0.4-0.7-0.8-1.1-1.1c-0.3-0.4-0.7-0.8-1.1-1.1c-0.3-0.4-0.7-0.8-1.1-1.1c-0.3-0.4-0.7-0.8-1.1-1.1
				c-0.3-0.4-0.7-0.8-1.1-1.1c-0.3-0.4-0.7-0.8-1.1-1.1c-0.3-0.4-0.7-0.8-1.1-1.1c-0.3-0.4-0.7-0.8-1.1-1.1
				c-0.3-0.4-0.7-0.8-1.1-1.1c-0.3-0.4-0.7-0.8-1.1-1.1c-0.3-0.4-0.7-0.8-1.1-1.1c-0.3-0.4-0.7-0.8-1.1-1.1
				c-0.3-0.4-0.7-0.8-1.1-1.1c-0.3-0.4-0.7-0.8-1.1-1.1c-0.3-0.4-0.7-0.8-1.1-1.1c-0.3-0.4-0.7-0.8-1.1-1.1
				c-0.3-0.4-0.7-0.8-1.1-1.1c-0.3-0.4-0.7-0.8-1.1-1.1c-0.3-0.4-0.7-0.8-1.1-1.1c-0.3-0.4-0.7-0.8-1.1-1.1
				c-0.3-0.4-0.7-0.8-1.1-1.1c-0.3-0.4-0.7-0.8-1.1-1.1c-0.3-0.4-0.7-0.8-1.1-1.1c-0.3-0.4-0.7-0.8-1.1-1.1
				c-0.3-0.4-0.7-0.8-1.1-1.1c-0.3-0.4-0.7-0.8-1.1-1.1c-0.3-0.4-0.7-0.8-1.1-1.1c-0.3-0.4-0.7-0.8-1.1-1.1
				c-0.3-0.4-0.7-0.8-1.1-1.1c-0.3-0.4-0.7-0.8-1.1-1.1c-0.3-0.4-0.7-0.8-1.1-1.1c-0.3-0.4-0.7-0.8-1.1-1.1
				c-0.3-0.4-0.7-0.8-1.1-1.1c-0.3-0.4-0.7-0.8-1.1-1.1c-0.3-0.4-0.7-0.8-1.1-1.1c-0.3-0.4-0.7-0.8-1.1-1.1
				c-0.3-0.4-0.7-0.8-1.1-1.1c-0.3-0.4-0.7-0.8-1.1-1.1c-0.3-0.4-0.7-0.8-1.1-1.1c-0.3-0.4-0.7-0.8-1.1-1.1
				c-0.3-0.4-0.7-0.8-1.1-1.1c-0.7-1.1-2-1.8-3.4-1.8h-121.1c-2.2,0-4.1,1.8-4.1,4.1V715c-0.6,0.6-1.2,1.3-1.5,2.1l-11.5,30.3
				c-0.3,0.8-0.3,1.6,0,2.3l-0.3,4.3c0,0,0.5,1.5,1.7,2.3c0.3,0.4,0.6,0.8,1.1,1.1c0.3,0.4,0.6,0.8,1.1,1.1c0.3,0.4,0.6,0.8,1.1,1.1
				c0.3,0.4,0.6,0.8,1.1,1.1c0.3,0.4,0.6,0.8,1.1,1.1c0.3,0.4,0.6,0.8,1.1,1.1c0.3,0.4,0.6,0.8,1.1,1.1c0.3,0.4,0.6,0.8,1.1,1.1
				c0.3,0.4,0.6,0.8,1.1,1.1c0.3,0.4,0.6,0.8,1.1,1.1c0.3,0.4,0.6,0.8,1.1,1.1c0.3,0.4,0.6,0.8,1.1,1.1c0.3,0.4,0.6,0.8,1.1,1.1
				c0.3,0.4,0.6,0.8,1.1,1.1c0.3,0.4,0.6,0.8,1.1,1.1c0.3,0.4,0.6,0.8,1.1,1.1c0.3,0.4,0.6,0.8,1.1,1.1c0.3,0.4,0.6,0.8,1.1,1.1
				c0.3,0.4,0.6,0.8,1.1,1.1c0.3,0.4,0.6,0.8,1.1,1.1c0.3,0.4,0.6,0.8,1.1,1.1c0.3,0.4,0.6,0.8,1.1,1.1c0.3,0.4,0.6,0.8,1.1,1.1
				c0.3,0.4,0.6,0.8,1.1,1.1c0.3,0.4,0.6,0.8,1.1,1.1c0.3,0.4,0.6,0.8,1.1,1.1c0.3,0.4,0.6,0.8,1.1,1.1c0.3,0.4,0.6,0.8,1.1,1.1
				c0.3,0.4,0.6,0.8,1.1,1.1c0.3,0.4,0.6,0.8,1.1,1.1c0.3,0.4,0.6,0.8,1.1,1.1c0.3,0.4,0.6,0.8,1.1,1.1c0.3,0.4,0.6,0.8,1.1,1.1
				c0.3,0.4,0.6,0.8,1.1,1.1c0.3,0.4,0.6,0.8,1.1,1.1c0.3,0.4,0.6,0.8,1.1,1.1c0.3,0.4,0.6,0.8,1.1,1.1c0.3,0.4,0.6,0.8,1.1,1.1
				c0.3,0.4,0.6,0.8,1.1,1.1c0.3,0.4,0.6,0.8,1.1,1.1c0.3,0.4,0.6,0.8,1.1,1.1c0.3,0.4,0.6,0.8,1.1,1.1c0.3,0.4,0.6,0.8,1.1,1.1
				c0.3,0.4,0.6,0.8,1.1,1.1c0.3,0.4,0.6,0.8,1.1,1.1c0.3,0.4,0.6,0.8,1.1,1.1c0.3,0.4,0.6,0.8,1.1,1.1c0.3,0.4,0.6,0.8,1.1,1.1
				c0.3,0.4,0.6,0.8,1.1,1.1c0.3,0.4,0.6,0.8,1.1,1.1c0.3,0.4,0.6,0.8,1.1,1.1c0.3,0.4,0.6,0.8,1.1,1.1c0.3,0.4,0.6,0.8,1.1,1.1
				c0.3,0.4,0.6,0.8,1.1,1.1c0.3,0.4,0.6,0.8,1.1,1.1c0.3,0.4,0.6,0.8,1.1,1.1c0.3,0.4,0.6,0.8,1.1,1.1c0.3,0.4,0.6,0.8,1.1,1.1
				c0.3,0.4,0.6,0.8,1.1,1.1c0.3,0.4,0.6,0.8,1.1,1.1c0.3,0.4,0.6,0.8,1.1,1.1c0.3,0.4,0.6,0.8,1.1,1.1c0.3,0.4,0.6,0.8,1.1,1.1
				c2.2,0.1,4.5,0.2,6.8,0.2C1234.6,825.7,1291.1,771.5,1294.7,703.2z"/>
			<path fill="#FFFFFF" d="M1243.2,748c0-0.2-0.1-0.5-0.2-0.7l-11.5-30.3c-0.3-0.8-0.8-1.5-1.4-2.1v-74.7c0-2.2-1.8-4.1-4.1-4.1
				h-121.1c-2.2,0-4.1,1.8-4.1,4.1V715c-0.6,0.6-1.2,1.3-1.5,2.1l-11.5,30.3c-0.3,0.8-0.3,1.6,0,2.3l-0.3,4.3c0,0,0.8,2.7,3.1,2.7
				h149.9c2.2,0,2.6-3.8,2.6-3.8l0.2-4.4L1243.2,748z M1102.5,722.5h1.5h5.3l0,0.1l-1.3,3.3h-6.8L1102.5,722.5z M1171.3,718.4l0,0.2
				l0.2,3.2h-5.1v-3.2v-0.2H1171.3z M1166.3,717.7v-3h4.8l0.1,3H1166.3z M1172.8,714.6h4.8l0.3,3h-4.9L1172.8,714.6z M1173,718.4h5
				l0,0.2l0.3,3.2h-5.1l-0.2-3.2L1173,718.4z M1179.4,714.6h4.8l0.4,3h-4.9L1179.4,714.6z M1179.7,718.4h5l0,0.2l0.5,3.2h-5.1
				l-0.3-3.2L1179.7,718.4z M1185.9,714.6h4.8l0.6,3h-4.9L1185.9,714.6z M1186.4,718.4h5l0,0.2l0.6,3.2h-5.1l-0.5-3.2L1186.4,718.4z
				 M1192.4,714.6h4.8l0.7,3h-4.9L1192.4,714.6z M1193.2,718.4h4.9l0,0.2l0.8,3.2h-5.1l-0.6-3.2L1193.2,718.4z M1199,714.6h4.7
				l0.9,3h-4.9L1199,714.6z M1199.9,718.4h4.9l0.1,0.2l0.9,3.2h-5.1l-0.8-3.2L1199.9,718.4z M1205.5,714.6h4.7l1,3h-4.9
				L1205.5,714.6z M1206.6,718.4h4.9l0.1,0.2l1.1,3.2h-5.1l-0.9-3.2L1206.6,718.4z M1212,714.6h4.7l1.2,3h-4.8L1212,714.6z
				 M1213.3,718.4h4.9l0.1,0.2l1.3,3.2h-5l-1.1-3.2L1213.3,718.4z M1221.6,722.5h5.3h1.5l1.4,3.4h-6.8l-1.3-3.3L1221.6,722.5z
				 M1218.7,734.2l-1.2-3.4h5.5l1.3,3.4H1218.7z M1224.6,734.9l1.3,3.4h-5.8l-1.2-3.4H1224.6z M1143.8,722.7l-0.5,3.3h-5.3l0.6-3.3
				l0-0.1h5.2L1143.8,722.7z M1136.9,722.7l-0.6,3.3h-5.3l0.8-3.3l0-0.1h5.1L1136.9,722.7z M1136.1,726.6l-0.7,3.4h-5.5l0.8-3.4
				H1136.1z M1130,722.7l-0.8,3.3h-5.3l1-3.3l0-0.1h5.1L1130,722.7z M1122.7,730l1-3.4h5.3l-0.8,3.4H1122.7z M1128,730.8l-0.8,3.4
				h-5.7l1-3.4H1128z M1123.1,722.7l-1,3.3h-5.3l1.1-3.3l0-0.1h5.1L1123.1,722.7z M1121.9,726.6l-1,3.4h-5.5l1.2-3.4H1121.9z
				 M1120.7,730.8l-1,3.4h-5.7l1.2-3.4H1120.7z M1113.6,730h-5.4l1.3-3.4h5.3L1113.6,730z M1113.8,734.9h5.7l-1,3.4h-5.9
				L1113.8,734.9z M1120.1,739h5.9l-0.8,3.4h-6.1L1120.1,739z M1120.3,738.3l1-3.4h5.7l-0.8,3.4H1120.3z M1127.8,739h5.9l-0.7,3.4
				h-6.1L1127.8,739z M1127.9,738.3l0.8-3.4h5.7l-0.7,3.4H1127.9z M1128.9,734.2l0.8-3.4h5.5l-0.7,3.4H1128.9z M1135.5,739h6
				l-0.5,3.4h-6.1L1135.5,739z M1135.6,738.3l0.7-3.4h5.8l-0.5,3.4H1135.6z M1136.4,734.2l0.7-3.4h5.6l-0.5,3.4H1136.4z M1137.2,730
				l0.7-3.4h5.4l-0.5,3.4H1137.2z M1143.2,739h6l-0.3,3.4h-6.1L1143.2,739z M1143.3,738.3l0.5-3.4h5.8l-0.3,3.4H1143.3z
				 M1143.9,734.2l0.5-3.4h5.6l-0.3,3.4H1143.9z M1144.5,730l0.5-3.4h5.4l-0.3,3.4H1144.5z M1145.1,725.9l0.5-3.3l0-0.1h5.2l0,0.1
				l-0.3,3.3H1145.1z M1150.9,739h6l-0.2,3.4h-6.1L1150.9,739z M1151,738.3l0.3-3.4h5.8l-0.2,3.4H1151z M1151.4,734.2l0.3-3.4h5.6
				l-0.2,3.4H1151.4z M1151.8,730l0.3-3.4h5.4l-0.2,3.4H1151.8z M1152.2,725.9l0.3-3.3l0-0.1h5.2l0,0.1l-0.2,3.3H1152.2z
				 M1158.6,739h6v3.4h-6.1L1158.6,739z M1158.6,738.3l0.2-3.4h5.8v3.4H1158.6z M1158.8,734.2l0.2-3.4h5.6v3.4H1158.8z M1159,730
				l0.2-3.4h5.4v3.4H1159z M1159.2,725.9l0.2-3.3l0-0.1h5.2v0.1v3.3H1159.2z M1166.3,734.2v-3.4h5.6l0.2,3.4H1166.3z M1172.1,734.9
				l0.2,3.4h-5.9v-3.4H1172.1z M1166.3,730v-3.4h5.4l0.2,3.4H1166.3z M1166.3,739h6l0.2,3.4h-6.2V739z M1171.7,725.9h-5.3v-3.3v-0.1
				h5.2l0,0.1L1171.7,725.9z M1173.2,722.5h5.2l0,0.1l0.3,3.3h-5.3l-0.2-3.3L1173.2,722.5z M1178.8,726.6l0.3,3.4h-5.5l-0.2-3.4
				H1178.8z M1179.2,730.8l0.3,3.4h-5.7l-0.2-3.4H1179.2z M1179.6,734.9l0.3,3.4h-6l-0.2-3.4H1179.6z M1180,739l0.3,3.4h-6.2
				l-0.2-3.4H1180z M1180.1,722.7l0-0.1h5.2l0,0.1l0.5,3.3h-5.3L1180.1,722.7z M1187,722.5h5.2l0,0.1l0.6,3.3h-5.3l-0.5-3.3
				L1187,722.5z M1194,722.5h5.1l0,0.1l0.8,3.3h-5.3l-0.6-3.3L1194,722.5z M1200.9,722.5h5.1l0,0.1l1,3.3h-5.3l-0.8-3.3
				L1200.9,722.5z M1207.8,722.5h5.1l0,0.1l1.1,3.3h-5.3l-1-3.3L1207.8,722.5z M1208.4,730.8l1,3.4h-5.7l-0.8-3.4H1208.4z
				 M1202.7,730l-0.8-3.4h5.3l1,3.4H1202.7z M1209,726.6h5.3l1.2,3.4h-5.5L1209,726.6z M1200.9,730h-5.5l-0.7-3.4h5.3L1200.9,730z
				 M1185.9,726.6l0.5,3.4h-5.5l-0.3-3.4H1185.9z M1186.5,730.8l0.5,3.4h-5.7l-0.3-3.4H1186.5z M1187.1,734.9l0.5,3.4h-5.9l-0.3-3.4
				H1187.1z M1187.7,739l0.5,3.4h-6.1l-0.3-3.4H1187.7z M1188.1,730l-0.5-3.4h5.4l0.7,3.4H1188.1z M1193.8,730.8l0.7,3.4h-5.7
				l-0.5-3.4H1193.8z M1194.6,734.9l0.7,3.4h-5.9l-0.5-3.4H1194.6z M1195.4,739l0.7,3.4h-6.1l-0.5-3.4H1195.4z M1195.6,730.8h5.5
				l0.8,3.4h-5.7L1195.6,730.8z M1202.1,734.9l0.8,3.4h-5.9l-0.7-3.4H1202.1z M1203.1,739l0.8,3.4h-6.1l-0.7-3.4H1203.1z
				 M1203.9,734.9h5.7l1,3.4h-5.9L1203.9,734.9z M1210.2,730.8h5.5l1.2,3.4h-5.7L1210.2,730.8z M1216.1,726.6h5.3l1.3,3.4h-5.4
				L1216.1,726.6z M1217.1,734.9l1.2,3.4h-5.9l-1-3.4H1217.1z M1221.1,725.9h-5.2l-1.1-3.3l0-0.1h5.1l0,0.1L1221.1,725.9z
				 M1164.6,717.7h-4.9l0.1-3h4.8V717.7z M1164.6,718.4v0.2v3.2h-5.1l0.2-3.2l0-0.2H1164.6z M1157.9,717.7h-4.9l0.3-3h4.8
				L1157.9,717.7z M1157.9,718.4l0,0.2l-0.2,3.2h-5.1l0.3-3.2l0-0.2H1157.9z M1151.2,717.7h-4.9l0.4-3h4.8L1151.2,717.7z
				 M1151.2,718.4l0,0.2l-0.3,3.2h-5.1l0.5-3.2l0-0.2H1151.2z M1144.6,717.7h-4.9l0.6-3h4.8L1144.6,717.7z M1144.5,718.4l0,0.2
				l-0.5,3.2h-5.1l0.6-3.2l0-0.2H1144.5z M1137.9,717.7h-4.9l0.7-3h4.8L1137.9,717.7z M1137.7,718.4l0,0.2l-0.6,3.2h-5.1l0.8-3.2
				l0-0.2H1137.7z M1131.2,717.7h-4.9l0.9-3h4.7L1131.2,717.7z M1131,718.4l0,0.2l-0.8,3.2h-5.1l0.9-3.2l0.1-0.2H1131z
				 M1124.5,717.7h-4.9l1-3h4.7L1124.5,717.7z M1124.3,718.4l-0.1,0.2l-0.9,3.2h-5.1l1.1-3.2l0.1-0.2H1124.3z M1117.8,717.7h-4.8
				l1.2-3h4.7L1117.8,717.7z M1117.6,718.4l-0.1,0.2l-1.1,3.2h-5l1.3-3.2l0.1-0.2H1117.6z M1111.1,722.5h5.1l0,0.1l-1.1,3.3h-5.2
				l1.3-3.3L1111.1,722.5z M1113.3,730.8l-1.2,3.4h-5.6l1.3-3.4H1113.3z M1111.9,734.9l-1.2,3.4h-5.8l1.3-3.4H1111.9z M1104.7,734.2
				h-7l1.4-3.4h6.9L1104.7,734.2z M1104.4,734.9l-1.3,3.4h-6.9c0,0-0.1,0-0.1,0l1.4-3.4H1104.4z M1096.2,739h6.6l-1.3,3.4h-5.3
				c-0.7,0-1.3,0-1.8,0l1.4-3.4C1095.9,739,1096,739,1096.2,739z M1103,743.1h6.1l-1.3,3.9h-6.3L1103,743.1z M1103.3,742.4l1.3-3.4
				h5.9l-1.2,3.4H1103.3z M1110.9,743.1h6.1l-1.1,3.9h-6.3L1110.9,743.1z M1111.2,742.4l1.2-3.4h5.9l-1,3.4H1111.2z M1118.8,743.1
				h85.3l1,3.9h-87.4L1118.8,743.1z M1204.9,739h5.9l1,3.4h-6.1L1204.9,739z M1212,743.1l1.1,3.9h-6.3l-1-3.9H1212z M1212.6,739h5.9
				l1.2,3.4h-6.1L1212.6,739z M1220,743.1l1.3,3.9h-6.3l-1.1-3.9H1220z M1220.4,739h5.9l1.3,3.4h-6L1220.4,739z M1227.9,743.1
				l1.5,3.9h-6.3l-1.3-3.9H1227.9z M1228.1,739h7.1l1.4,3.4h-7.1L1228.1,739z M1227.8,738.3l-1.3-3.4h7l1.4,3.4H1227.8z
				 M1226.2,734.2l-1.3-3.4h6.9l1.4,3.4H1226.2z M1224.6,730l-1.3-3.4h6.8l1.4,3.4H1224.6z M1228.1,721.8h-6.7l-1.3-3.2l-0.1-0.2
				h6.7c0,0,0,0,0,0l0.1,0.3L1228.1,721.8z M1219.8,717.7l-1.2-3h2.5c2,0,4.2,1.3,5.3,3H1219.8z M1109.8,714.6h2.5l-1.2,3h-6.6
				C1105.7,716,1107.8,714.6,1109.8,714.6z M1110.9,718.4l-0.1,0.2l-1.3,3.2h-6.7l1.3-3.1l0.1-0.3c0,0,0,0,0,0H1110.9z
				 M1107.6,726.6l-1.3,3.4h-6.9l1.4-3.4H1107.6z M1094,743.2l0.1-0.2c0.6,0,1.3,0.1,2.1,0.1h5l-1.5,3.9h-3.1
				C1094.3,747,1093.1,745.3,1094,743.2z M1234.4,747h-3.2l-1.5-3.9h7.2l0,0.1C1237.8,745.3,1236.6,747,1234.4,747z M1109.8,642.7
				h111.2v63.8h-111.2V642.7z"/>
		</g>
		<g>
			<circle fill="#34BBC6" cx="234.6" cy="283.7" r="129.4"/>
			<path fill="#238B93" d="M361.7,308c-0.3-0.3-0.5-0.5-0.8-0.8c-0.4-0.4-0.7-0.7-1.1-1.1c-0.4-0.4-0.7-0.7-1.1-1.1
				c-0.4-0.4-0.7-0.7-1.1-1.1c-0.4-0.4-0.7-0.7-1.1-1.1c-0.4-0.4-0.7-0.7-1.1-1.1c-0.4-0.4-0.7-0.7-1.1-1.1
				c-0.4-0.4-0.7-0.7-1.1-1.1c-0.4-0.4-0.7-0.7-1.1-1.1c-0.4-0.4-0.7-0.7-1.1-1.1c-0.4-0.4-0.7-0.7-1.1-1.1
				c-0.4-0.4-0.7-0.7-1.1-1.1c-0.4-0.4-0.7-0.7-1.1-1.1c-0.4-0.4-0.7-0.7-1.1-1.1c-0.4-0.4-0.7-0.7-1.1-1.1
				c-0.4-0.4-0.7-0.7-1.1-1.1c-0.4-0.4-0.7-0.7-1.1-1.1c-0.4-0.4-0.7-0.7-1.1-1.1c-0.4-0.4-0.7-0.7-1.1-1.1
				c-0.4-0.4-0.7-0.7-1.1-1.1c-0.4-0.4-0.7-0.7-1.1-1.1c-0.4-0.4-0.7-0.7-1.1-1.1c-0.4-0.4-0.7-0.7-1.1-1.1
				c-0.4-0.4-0.7-0.7-1.1-1.1c-0.4-0.4-0.7-0.7-1.1-1.1c-0.4-0.4-0.7-0.7-1.1-1.1c-0.4-0.4-0.7-0.7-1.1-1.1
				c-0.4-0.4-0.7-0.7-1.1-1.1c-0.4-0.4-0.7-0.7-1.1-1.1c-0.4-0.4-0.7-0.7-1.1-1.1c-0.4-0.4-0.7-0.7-1.1-1.1
				c-0.4-0.4-0.7-0.7-1.1-1.1c-0.4-0.4-0.7-0.7-1.1-1.1c-0.4-0.4-0.7-0.7-1.1-1.1c-0.4-0.4-0.7-0.7-1.1-1.1
				c-0.4-0.4-0.7-0.7-1.1-1.1c-0.4-0.4-0.7-0.7-1.1-1.1c-0.4-0.4-0.7-0.7-1.1-1.1c-0.4-0.4-0.7-0.7-1.1-1.1
				c-0.4-0.4-0.7-0.7-1.1-1.1c-0.4-0.4-0.7-0.7-1.1-1.1c-0.4-0.4-0.7-0.7-1.1-1.1c-0.4-0.4-0.7-0.7-1.1-1.1
				c-0.4-0.4-0.7-0.7-1.1-1.1c-0.4-0.4-0.7-0.7-1.1-1.1c-0.4-0.4-0.7-0.7-1.1-1.1c-0.4-0.4-0.7-0.7-1.1-1.1
				c-0.4-0.4-0.7-0.7-1.1-1.1c-0.4-0.4-0.7-0.7-1.1-1.1c-0.4-0.4-0.7-0.7-1.1-1.1c-0.4-0.4-0.7-0.7-1.1-1.1
				c-0.4-0.4-0.7-0.7-1.1-1.1c-0.4-0.4-0.7-0.7-1.1-1.1c-0.4-0.4-0.7-0.7-1.1-1.1c-0.4-0.4-0.7-0.7-1.1-1.1
				c-0.4-0.4-0.7-0.7-1.1-1.1c-0.4-0.4-0.7-0.7-1.1-1.1c-0.4-0.4-0.7-0.7-1.1-1.1c-0.4-0.4-0.7-0.7-1.1-1.1
				c-0.4-0.4-0.7-0.7-1.1-1.1c-0.4-0.4-0.7-0.7-1.1-1.1c-0.4-0.4-0.7-0.7-1.1-1.1c-0.4-0.4-0.7-0.7-1.1-1.1
				c-0.4-0.4-0.7-0.7-1.1-1.1c-0.4-0.4-0.7-0.7-1.1-1.1c-0.8-0.8-1.7-1.7-2.6-2.5C275.4,222.3,256,215,234.6,215
				c-33.5,0.1-62,17.7-66.4,43c-0.3,1.8,0.5,3.4,1.8,4.4c0.3,0.4,0.7,0.8,1.1,1.1c0.3,0.4,0.7,0.8,1.1,1.1c0.3,0.4,0.7,0.8,1.1,1.1
				c0.3,0.4,0.7,0.8,1.1,1.1c0.3,0.4,0.7,0.8,1.1,1.1c0.3,0.4,0.7,0.8,1.1,1.1c0.3,0.4,0.7,0.8,1.1,1.1c0.3,0.4,0.7,0.8,1.1,1.1
				c0.3,0.4,0.7,0.8,1.1,1.1c0.3,0.4,0.7,0.8,1.1,1.1c0.3,0.4,0.7,0.8,1.1,1.1c0.3,0.4,0.7,0.8,1.1,1.1c0.3,0.4,0.7,0.8,1.1,1.1
				c0.3,0.4,0.7,0.8,1.1,1.1c0.3,0.4,0.7,0.8,1.1,1.1c0.3,0.4,0.7,0.8,1.1,1.1c0.3,0.4,0.7,0.8,1.1,1.1c0.3,0.4,0.7,0.8,1.1,1.1
				c0.3,0.4,0.7,0.8,1.1,1.1c0.3,0.4,0.7,0.8,1.1,1.1c0.3,0.4,0.7,0.8,1.1,1.1c0.3,0.4,0.7,0.8,1.1,1.1c0.3,0.4,0.7,0.8,1.1,1.1
				c0.3,0.4,0.7,0.8,1.1,1.1c0.3,0.4,0.7,0.8,1.1,1.1c0.3,0.4,0.7,0.8,1.1,1.1c0.3,0.4,0.7,0.8,1.1,1.1c0.3,0.4,0.7,0.8,1.1,1.1
				c0.3,0.4,0.7,0.8,1.1,1.1c0.3,0.4,0.7,0.8,1.1,1.1c0.3,0.4,0.7,0.8,1.1,1.1c0.3,0.4,0.7,0.8,1.1,1.1c0.3,0.4,0.7,0.8,1.1,1.1
				c0.3,0.4,0.7,0.8,1.1,1.1c0.3,0.4,0.7,0.8,1.1,1.1c0.3,0.4,0.7,0.8,1.1,1.1c0.3,0.4,0.7,0.8,1.1,1.1c0.3,0.4,0.7,0.8,1.1,1.1
				c0.3,0.4,0.7,0.8,1.1,1.1c0.3,0.4,0.7,0.8,1.1,1.1c0.3,0.4,0.7,0.8,1.1,1.1c0.3,0.4,0.7,0.8,1.1,1.1c0.3,0.4,0.7,0.8,1.1,1.1
				c0.3,0.4,0.7,0.8,1.1,1.1c0.3,0.4,0.7,0.8,1.1,1.1c0.3,0.4,0.7,0.8,1.1,1.1c0.2,0.3,0.4,0.5,0.6,0.7h-22.2c-8.3,0-15,6.7-15,15
				c0,4.4,1.9,8.4,5,11.1c0.3,0.4,0.7,0.8,1.1,1.1c0.3,0.4,0.7,0.8,1.1,1.1c0.3,0.4,0.7,0.8,1.1,1.1c0.3,0.4,0.7,0.8,1.1,1.1
				c0.3,0.4,0.7,0.8,1.1,1.1c0.3,0.4,0.7,0.8,1.1,1.1c0.3,0.4,0.7,0.8,1.1,1.1c0.3,0.4,0.7,0.8,1.1,1.1c0.3,0.4,0.7,0.8,1.1,1.1
				c0.3,0.4,0.7,0.8,1.1,1.1c0.3,0.4,0.7,0.8,1.1,1.1c0.3,0.4,0.7,0.8,1.1,1.1c0.3,0.4,0.7,0.8,1.1,1.1c0.3,0.4,0.7,0.8,1.1,1.1
				c0.3,0.4,0.7,0.8,1.1,1.1c0.3,0.4,0.7,0.8,1.1,1.1c0.3,0.4,0.7,0.8,1.1,1.1c0.3,0.4,0.7,0.8,1.1,1.1c0.3,0.4,0.7,0.8,1.1,1.1
				c0.3,0.4,0.7,0.8,1.1,1.1c0.3,0.4,0.7,0.8,1.1,1.1c0.3,0.4,0.7,0.8,1.1,1.1c0.3,0.4,0.7,0.8,1.1,1.1c0.3,0.4,0.7,0.8,1.1,1.1
				c0.3,0.4,0.7,0.8,1.1,1.1c0.3,0.4,0.7,0.8,1.1,1.1c0.3,0.4,0.7,0.8,1.1,1.1c0.3,0.4,0.7,0.8,1.1,1.1c0.3,0.4,0.7,0.8,1.1,1.1
				c0.3,0.4,0.7,0.8,1.1,1.1c0.3,0.4,0.7,0.8,1.1,1.1c0.3,0.4,0.7,0.8,1.1,1.1c0.3,0.4,0.7,0.8,1.1,1.1c0.3,0.4,0.7,0.8,1.1,1.1
				c0.3,0.4,0.7,0.8,1.1,1.1c0.3,0.4,0.7,0.8,1.1,1.1c0.3,0.4,0.7,0.8,1.1,1.1c0.3,0.4,0.7,0.8,1.1,1.1c0.3,0.4,0.7,0.8,1.1,1.1
				c0.3,0.4,0.7,0.8,1.1,1.1c0.3,0.4,0.7,0.8,1.1,1.1c0.3,0.4,0.7,0.8,1.1,1.1c0.3,0.4,0.7,0.8,1.1,1.1c0.3,0.4,0.7,0.8,1.1,1.1
				c0.3,0.4,0.7,0.8,1.1,1.1c0.3,0.4,0.7,0.8,1.1,1.1c0.3,0.4,0.7,0.8,1.1,1.1c0.3,0.4,0.7,0.8,1.1,1.1c0.3,0.4,0.7,0.8,1.1,1.1
				c0.3,0.4,0.7,0.8,1.1,1.1c0.3,0.4,0.7,0.8,1.1,1.1c0.3,0.4,0.7,0.8,1.1,1.1c0.3,0.4,0.7,0.8,1.1,1.1c0.3,0.4,0.7,0.8,1.1,1.1
				c0.3,0.4,0.7,0.8,1.1,1.1c0.3,0.4,0.7,0.8,1.1,1.1c0.3,0.4,0.7,0.8,1.1,1.1c0.3,0.4,0.7,0.8,1.1,1.1c0.3,0.4,0.7,0.8,1.1,1.1
				c0.3,0.4,0.7,0.8,1.1,1.1c0.3,0.4,0.7,0.8,1.1,1.1c0.3,0.4,0.7,0.8,1.1,1.1c0.3,0.4,0.7,0.8,1.1,1.1c0.3,0.4,0.7,0.8,1.1,1.1
				c0,0,0,0,0,0C311.3,400.4,351.8,359.6,361.7,308z"/>
			<g>
				<g>
					<path fill="#FFFFFF" d="M301,258c-4.4-25.3-32.9-43-66.4-43c-33.5,0.1-62,17.7-66.4,43c-0.4,2.5,1.3,4.8,3.8,5.2
						c2.5,0.4,4.8-1.3,5.2-3.7c2.7-18.8,26.9-35.5,57.5-35.4c30.6-0.1,54.7,16.6,57.5,35.4c0.4,2.2,2.3,3.8,4.5,3.8
						c0.2,0,0.5,0,0.7-0.1C299.7,262.8,301.4,260.5,301,258z"/>
					<path fill="#FFFFFF" d="M270.4,276.4c0.3,2.2,2.3,3.9,4.5,3.9c0.2,0,0.4,0,0.7,0c2.5-0.4,4.2-2.7,3.8-5.1h0
						c-3-18.6-22.3-31.6-44.8-31.6c-22.5,0-41.9,13-44.8,31.6c-0.4,2.5,1.3,4.8,3.8,5.1c2.5,0.4,4.8-1.3,5.1-3.8
						c1.7-12.6,16.6-23.9,35.9-23.9C253.8,252.5,268.8,263.8,270.4,276.4z"/>
					<path fill="#FFFFFF" d="M234.6,271.9c-12,0-21.9,8.7-23.3,20.2c-0.3,2.5,1.5,4.7,4,5c0.2,0,0.4,0,0.5,0c2.3,0,4.2-1.7,4.5-4
						c0.8-6.8,6.8-12.3,14.3-12.3c7.5,0,13.5,5.5,14.3,12.2c0.3,2.5,2.5,4.3,5,4c2.5-0.3,4.3-2.5,4-5v0
						C256.5,280.6,246.5,271.9,234.6,271.9z"/>
					<path fill="#FFFFFF" d="M269.9,313.9H239c0-0.2,0.1-0.4,0.1-0.6v-15.8c0-2.5-2-4.5-4.5-4.5c-2.5,0-4.5,2-4.5,4.5v15.8
						c0,0.2,0,0.4,0.1,0.6h-30.9c-8.3,0-15,6.7-15,15c0,8.3,6.7,15,15,15h0.1v2c0,3.6,2.9,6.5,6.5,6.5c3.6,0,6.5-2.9,6.5-6.5v-2
						h44.4v2c0,3.6,2.9,6.5,6.5,6.5c3.6,0,6.5-2.9,6.5-6.5v-2h0.1c8.3,0,15-6.7,15-15C284.9,320.6,278.2,313.9,269.9,313.9z
						 M218.1,338.2h-2.3v-17h2.3V338.2z M229.8,338.2h-2.3v-17h2.3V338.2z M241.5,338.2h-2.3v-17h2.3V338.2z M253.2,338.2H251v-17
						h2.3V338.2z"/>
				</g>
			</g>
		</g>
		<g>
			<circle fill="#2F5773" cx="548.9" cy="283.7" r="129.4"/>
			<path fill="#1D3F55" d="M678.3,283.7c0-2.3-0.1-4.5-0.2-6.7c-0.1-0.1-0.2-0.1-0.3-0.2c-0.3-0.5-0.6-0.8-1.1-1.1
				c-0.3-0.5-0.6-0.8-1.1-1.1c-0.3-0.5-0.6-0.8-1.1-1.1c-0.3-0.5-0.6-0.8-1.1-1.1c-0.3-0.5-0.6-0.8-1.1-1.1
				c-0.3-0.5-0.6-0.8-1.1-1.1c-0.3-0.5-0.6-0.8-1.1-1.1c-0.3-0.5-0.6-0.8-1.1-1.1c-0.3-0.5-0.6-0.8-1.1-1.1
				c-0.3-0.5-0.6-0.8-1.1-1.1c-0.3-0.5-0.6-0.8-1.1-1.1c-0.3-0.5-0.6-0.8-1.1-1.1c-0.3-0.5-0.6-0.8-1.1-1.1
				c-0.3-0.5-0.6-0.8-1.1-1.1c-0.3-0.5-0.6-0.8-1.1-1.1c-0.3-0.5-0.6-0.8-1.1-1.1c-0.3-0.5-0.6-0.8-1.1-1.1
				c-0.3-0.5-0.6-0.8-1.1-1.1c-0.3-0.5-0.6-0.8-1.1-1.1c-0.3-0.5-0.6-0.8-1.1-1.1c-0.3-0.5-0.6-0.8-1.1-1.1
				c-0.3-0.5-0.6-0.8-1.1-1.1c-0.3-0.5-0.6-0.8-1.1-1.1c-0.3-0.5-0.6-0.8-1.1-1.1c-0.3-0.5-0.6-0.8-1.1-1.1
				c-0.3-0.5-0.6-0.8-1.1-1.1c-0.3-0.5-0.6-0.8-1.1-1.1c-0.3-0.5-0.6-0.8-1.1-1.1c-0.3-0.5-0.6-0.8-1.1-1.1
				c-0.3-0.5-0.6-0.8-1.1-1.1c-0.3-0.5-0.6-0.8-1.1-1.1c-0.3-0.5-0.6-0.8-1.1-1.1c-0.3-0.5-0.6-0.8-1.1-1.1
				c-0.3-0.5-0.6-0.8-1.1-1.1c-0.3-0.5-0.6-0.8-1.1-1.1c-0.3-0.5-0.6-0.8-1.1-1.1c-0.3-0.5-0.6-0.8-1.1-1.1
				c-0.3-0.5-0.6-0.8-1.1-1.1c-0.3-0.5-0.6-0.8-1.1-1.1c-0.3-0.5-0.6-0.8-1.1-1.1c-0.3-0.5-0.6-0.8-1.1-1.1
				c-0.3-0.5-0.6-0.8-1.1-1.1c-0.3-0.5-0.6-0.8-1.1-1.1c-0.3-0.5-0.6-0.8-1.1-1.1c-0.3-0.5-0.6-0.8-1.1-1.1
				c-0.3-0.5-0.6-0.8-1.1-1.1c-0.3-0.5-0.6-0.8-1.1-1.1c-0.3-0.5-0.6-0.8-1.1-1.1c-0.3-0.5-0.6-0.8-1.1-1.1
				c-0.3-0.5-0.6-0.8-1.1-1.1c-0.3-0.5-0.6-0.8-1.1-1.1c-0.3-0.5-0.6-0.8-1.1-1.1c-0.5-0.9-1.5-1.5-2.6-1.5h-138
				c-1.7,0-3.1,1.4-3.1,3.1V237v74.2v0.5c0,3.3,1.5,6.2,3.8,8.2c0.3,0.4,0.7,0.8,1.1,1.1c0.3,0.4,0.7,0.8,1.1,1.1
				c0.3,0.4,0.7,0.8,1.1,1.1c0.3,0.4,0.7,0.8,1.1,1.1c0.3,0.4,0.7,0.8,1.1,1.1c0.3,0.4,0.7,0.8,1.1,1.1c0.3,0.4,0.7,0.8,1.1,1.1
				c0.3,0.4,0.7,0.8,1.1,1.1c0.3,0.4,0.7,0.8,1.1,1.1c0.3,0.4,0.7,0.8,1.1,1.1c0.3,0.4,0.7,0.8,1.1,1.1c0.3,0.4,0.7,0.8,1.1,1.1
				c0.3,0.4,0.7,0.8,1.1,1.1c0.3,0.4,0.7,0.8,1.1,1.1c0.3,0.4,0.7,0.8,1.1,1.1c0.3,0.4,0.7,0.8,1.1,1.1c0.3,0.4,0.7,0.8,1.1,1.1
				c0.3,0.4,0.7,0.8,1.1,1.1c0.3,0.4,0.7,0.8,1.1,1.1c0.3,0.4,0.7,0.8,1.1,1.1c0.3,0.4,0.7,0.8,1.1,1.1c0.3,0.4,0.7,0.8,1.1,1.1
				c0.3,0.4,0.7,0.8,1.1,1.1c0.3,0.4,0.7,0.8,1.1,1.1c0.3,0.4,0.7,0.8,1.1,1.1c0.3,0.4,0.7,0.8,1.1,1.1c0.3,0.4,0.7,0.8,1.1,1.1
				c0.3,0.4,0.7,0.8,1.1,1.1c0.3,0.4,0.7,0.8,1.1,1.1c0.3,0.4,0.7,0.8,1.1,1.1c0.3,0.4,0.7,0.8,1.1,1.1c0.3,0.4,0.7,0.8,1.1,1.1
				c0.3,0.4,0.7,0.8,1.1,1.1c0.3,0.4,0.7,0.8,1.1,1.1c0.3,0.4,0.7,0.8,1.1,1.1c0.3,0.4,0.7,0.8,1.1,1.1c0.3,0.4,0.7,0.8,1.1,1.1
				c0.3,0.4,0.7,0.8,1.1,1.1c0.3,0.4,0.7,0.8,1.1,1.1c0.3,0.4,0.7,0.8,1.1,1.1c0.3,0.4,0.7,0.8,1.1,1.1c0.3,0.4,0.7,0.8,1.1,1.1
				c0.3,0.4,0.7,0.8,1.1,1.1c0.3,0.4,0.7,0.8,1.1,1.1c0.3,0.4,0.7,0.8,1.1,1.1c0.3,0.4,0.7,0.8,1.1,1.1c0.3,0.4,0.7,0.8,1.1,1.1
				c0.3,0.4,0.7,0.8,1.1,1.1c0.3,0.4,0.7,0.8,1.1,1.1c0.3,0.4,0.7,0.8,1.1,1.1c0.3,0.4,0.7,0.8,1.1,1.1c0.3,0.4,0.7,0.8,1.1,1.1
				c0.3,0.4,0.7,0.8,1.1,1.1c0.3,0.4,0.7,0.8,1.1,1.1c0.3,0.4,0.7,0.8,1.1,1.1c0.3,0.4,0.7,0.8,1.1,1.1c0.3,0.4,0.7,0.8,1.1,1.1
				c0.3,0.4,0.7,0.8,1.1,1.1c0.3,0.4,0.7,0.8,1.1,1.1c0.3,0.4,0.7,0.8,1.1,1.1c0.3,0.4,0.7,0.8,1.1,1.1c0.3,0.4,0.7,0.8,1.1,1.1
				c0.3,0.4,0.7,0.8,1.1,1.1c0.3,0.4,0.7,0.8,1.1,1.1c0.3,0.4,0.7,0.8,1.1,1.1c0.3,0.4,0.7,0.8,1.1,1.1c0.3,0.4,0.7,0.8,1.1,1.1
				c0.3,0.4,0.7,0.8,1.1,1.1c0.3,0.4,0.7,0.8,1.1,1.1c0.3,0.4,0.7,0.8,1.1,1.1c0.3,0.4,0.7,0.8,1.1,1.1c0.3,0.4,0.7,0.8,1.1,1.1
				c0.3,0.4,0.7,0.8,1.1,1.1c0.3,0.4,0.7,0.8,1.1,1.1c0.3,0.4,0.7,0.8,1.1,1.1c0.3,0.4,0.7,0.8,1.1,1.1c0.3,0.4,0.7,0.8,1.1,1.1
				c0.3,0.4,0.7,0.8,1.1,1.1c0.3,0.4,0.7,0.8,1.1,1.1c0.3,0.4,0.7,0.8,1.1,1.1c0.3,0.4,0.7,0.8,1.1,1.1c0.3,0.4,0.7,0.8,1.1,1.1
				c0.2,0.2,0.5,0.5,0.7,0.7C632.3,400.3,678.3,347.3,678.3,283.7z"/>
			<g>
				<path fill="#FFFFFF" d="M617.9,217.9h-138c-1.7,0-3.1,1.4-3.1,3.1V237v74.2v0.5c0,6,4.9,10.8,10.8,10.8h56.7v10.3h-19.8
					c-6.8,0-12.3,5.3-12.3,11.7c0,0.1,0,0.2,0,0.4h73.2c0-0.1,0-0.2,0-0.4c0-6.5-5.5-11.7-12.3-11.7h-19.8v-10.3h56.7
					c6,0,10.8-4.9,10.8-10.8v-0.5V237v-16.1C620.9,219.3,619.6,217.9,617.9,217.9z M481.2,221.8h135.4v6.5v71.1H481.2v-71.1V221.8z"
					/>
				<rect x="511.8" y="347" fill="#FFFFFF" width="74.2" height="2.4"/>
			</g>
		</g>
		<g>
			<circle fill="#CBDB31" cx="234.6" cy="696.3" r="129.4"/>
			<path fill="#99A824" d="M361.2,722.9h-0.8v-1.1h-1.1v-1.1h-1.1v-1.1h-1.1v-1.1H356v-1.1h-1.1v-1.1h-1.1v-1.1h-1.1V714h-1.1v-1.1
				h-1.1v-1.1h-1.1v-1.1h-1.1v-1.1h-1.1v-1.1H346v-1.1h-1.1v-1.1h-1.1v-1.1h-1.1v-1.1h-1.1V703h-1.1v-1.1h-1.1v-1.1h-1.1v-1.1h-1.1
				v-1.1h-1.1v-1.1H335v-1.1h-1.1v-1.1h-1.1v-1.1h-1.1v-1.1h-1.1V692h-1.1v-1.1h-1.1v-1.1h-1.1v-1.1h-1.1v-1.1h-1.1v-1.1H324v-1.1
				h-1.1v-1.1h-1.1v-1.1h-1.1v-1.1h-1.1V681h-1.1v-1.1h-1.1v-1.1h-1.1v-1.1h-1.1v-1.1h-1.1v-1.1H313v-1.1h-1.1v-1.1h-1.1v-1.1h-1.1
				V671h-1.1v-1.1h-1.1v-1.1h-1.1v-1.1h-1.1v-1.1h-1.1v-1.1H303v-1.1h-1.1v-1.1h-1.1v-1.1h-1.1v-1.1h-1.1V660h-7.6
				c-0.3-0.3-0.6-0.6-0.9-0.9c-0.3-0.4-0.7-0.8-1.1-1.1c-0.3-0.4-0.7-0.8-1.1-1.1c-0.3-0.4-0.7-0.8-1.1-1.1
				c-1.4-1.7-3.5-2.8-5.8-2.8h-1.8c-0.2-0.2-0.4-0.4-0.7-0.6c-0.9-1.3-2.5-2.1-4.2-2.1h-29.9c-2,0-3.7,1.1-4.6,2.7h-2.1
				c-4,0-7.2,3.1-7.5,7h-27.8h-7.9c0,0,0,0,0,0c-0.3-0.4-0.7-0.8-1.1-1.1c-1.6-1.8-3.7-3.2-6.1-3.9c-1.2-0.3-2.4-0.5-3.7-0.5
				c-7.3,0-13.1,5.9-13.1,13.1v61.6c0,3.9,1.7,7.4,4.4,9.8c0.3,0.4,0.7,0.8,1.1,1.1c0.3,0.4,0.7,0.8,1.1,1.1
				c0.3,0.4,0.7,0.8,1.1,1.1c0.3,0.4,0.7,0.8,1.1,1.1c0.3,0.4,0.7,0.8,1.1,1.1c0.3,0.4,0.7,0.8,1.1,1.1c0.3,0.4,0.7,0.8,1.1,1.1
				c0.3,0.4,0.7,0.8,1.1,1.1c0.3,0.4,0.7,0.8,1.1,1.1c0.3,0.4,0.7,0.8,1.1,1.1c0.3,0.4,0.7,0.8,1.1,1.1c0.3,0.4,0.7,0.8,1.1,1.1
				c0.3,0.4,0.7,0.8,1.1,1.1c0.3,0.4,0.7,0.8,1.1,1.1c0.3,0.4,0.7,0.8,1.1,1.1c0.3,0.4,0.7,0.8,1.1,1.1c0.3,0.4,0.7,0.8,1.1,1.1
				c0.3,0.4,0.7,0.8,1.1,1.1c0.3,0.4,0.7,0.8,1.1,1.1c0.3,0.4,0.7,0.8,1.1,1.1c0.3,0.4,0.7,0.8,1.1,1.1c0.3,0.4,0.7,0.8,1.1,1.1
				c0.3,0.4,0.7,0.8,1.1,1.1c0.3,0.4,0.7,0.8,1.1,1.1c0.3,0.4,0.7,0.8,1.1,1.1c0.3,0.4,0.7,0.8,1.1,1.1c0.3,0.4,0.7,0.8,1.1,1.1
				c0.3,0.4,0.7,0.8,1.1,1.1c0.3,0.4,0.7,0.8,1.1,1.1c0.3,0.4,0.7,0.8,1.1,1.1c0.3,0.4,0.7,0.8,1.1,1.1c0.3,0.4,0.7,0.8,1.1,1.1
				c0.3,0.4,0.7,0.8,1.1,1.1c0.3,0.4,0.7,0.8,1.1,1.1c0.3,0.4,0.7,0.8,1.1,1.1c0.3,0.4,0.7,0.8,1.1,1.1c0.3,0.4,0.7,0.8,1.1,1.1
				c0.3,0.4,0.7,0.8,1.1,1.1c0.3,0.4,0.7,0.8,1.1,1.1c0.3,0.4,0.7,0.8,1.1,1.1c0.3,0.4,0.7,0.8,1.1,1.1c0.3,0.4,0.7,0.8,1.1,1.1
				c0.3,0.4,0.7,0.8,1.1,1.1c0.3,0.4,0.7,0.8,1.1,1.1c0.3,0.4,0.7,0.8,1.1,1.1c0.3,0.4,0.7,0.8,1.1,1.1c0.3,0.4,0.7,0.8,1.1,1.1
				c0.3,0.4,0.7,0.8,1.1,1.1c0.3,0.4,0.7,0.8,1.1,1.1c0.3,0.4,0.7,0.8,1.1,1.1c0.3,0.4,0.7,0.8,1.1,1.1c0.3,0.4,0.7,0.8,1.1,1.1
				c0.3,0.4,0.7,0.8,1.1,1.1c0.3,0.4,0.7,0.8,1.1,1.1c0.3,0.4,0.7,0.8,1.1,1.1c0.3,0.4,0.7,0.8,1.1,1.1c0.3,0.4,0.7,0.8,1.1,1.1
				c0.3,0.4,0.7,0.8,1.1,1.1c0.3,0.4,0.7,0.8,1.1,1.1c0.3,0.4,0.7,0.8,1.1,1.1c0.3,0.4,0.7,0.8,1.1,1.1c0.3,0.4,0.7,0.8,1.1,1.1
				c0.3,0.4,0.7,0.8,1.1,1.1c0.3,0.4,0.7,0.8,1.1,1.1c0.3,0.4,0.7,0.8,1.1,1.1c0.3,0.4,0.7,0.8,1.1,1.1c0.3,0.4,0.7,0.8,1.1,1.1
				c0.3,0.4,0.7,0.8,1.1,1.1c0.3,0.4,0.7,0.8,1.1,1.1c0.3,0.4,0.7,0.8,1.1,1.1c0.3,0.4,0.7,0.8,1.1,1.1c0.3,0.4,0.7,0.8,1.1,1.1
				c0.3,0.4,0.7,0.8,1.1,1.1c0.3,0.4,0.7,0.8,1.1,1.1c0.3,0.4,0.7,0.8,1.1,1.1c0.3,0.4,0.7,0.8,1.1,1.1c0.2,0.2,0.4,0.4,0.6,0.6
				C310.3,813.5,350.6,773.6,361.2,722.9z"/>
			<g>
				<g>
					<path fill="#FFFFFF" d="M288.5,660c-0.3-3.9-3.6-7-7.5-7h-2.1c-0.9-1.6-2.6-2.7-4.6-2.7h-29.9c-2,0-3.7,1.1-4.6,2.7h-2.1
						c-4,0-7.2,3.1-7.5,7h-27.8h-8.1c-1.7-2.4-4.1-4.1-7-5c-1.2-0.3-2.4-0.5-3.7-0.5c-7.3,0-13.1,5.9-13.1,13.1v61.6
						c0,7.3,5.9,13.1,13.1,13.1c4.8,0,9-2.6,11.3-6.5h103.7V660H288.5z M240,658.3c0.9-1.5,2.6-2.5,4.5-2.5h29.9
						c1.9,0,3.5,1,4.5,2.5c0.3,0.5,0.6,1.1,0.7,1.7h-2.4h-35.3h-2.4C239.4,659.4,239.7,658.8,240,658.3z M254.9,728.3
						c-17.4,0-31.5-14.1-31.5-31.5c0-12.7,7.5-23.6,18.3-28.6c1.8-0.8,3.7-1.5,5.7-2c2.4-0.6,4.9-0.9,7.5-0.9c2.6,0,5.1,0.3,7.5,0.9
						c2,0.5,3.9,1.1,5.7,2c10.8,5,18.3,15.9,18.3,28.6C286.4,714.2,272.3,728.3,254.9,728.3z"/>
					<path fill="#FFFFFF" d="M254.9,668.2c-15.8,0-28.6,12.8-28.6,28.6c0,15.8,12.8,28.6,28.6,28.6c15.8,0,28.6-12.8,28.6-28.6
						C283.5,681,270.7,668.2,254.9,668.2z M254.9,721.8c-13.8,0-25-11.2-25-25c0-13.8,11.2-25,25-25c13.8,0,25,11.2,25,25
						C279.9,710.6,268.7,721.8,254.9,721.8z"/>
					<path fill="#FFFFFF" d="M247.2,678.6c-5.4,0-9.7,4.4-9.7,9.7c0,3.8,2.2,7.1,5.4,8.7c0-0.3,0-0.5,0-0.8c0-5.4,4.4-9.7,9.7-9.7
						c1.5,0,3,0.4,4.3,1C256.4,682.5,252.3,678.6,247.2,678.6z"/>
				</g>
			</g>
		</g>
		<g>
			<circle fill="#2F5773" cx="860.7" cy="696.3" r="129.4"/>
			<path fill="#1D3F55" d="M990,700.1h-0.3V699h-1.1v-1.1h-1.1v-1.1h-1.1v-1.1h-1.1v-1.1h-1.1v-1.1h-1.1v-1.1H982v-1.1h-1.1v-1.1
				h-1.1v-1.1h-1.1v-1.1h-1.1v-1.1h-1.1v-1.1h-1.1v-1.1h-1.1v-1.1h-1.1v-1.1H972v-1.1h-1.1v-1.1h-1.1v-1.1h-1.1V678h-1.1v-1.1h-1.1
				v-1.1h-1.1v-1.1h-1.1v-1.1h-1.1v-1.1h-1.1v-1.1H961v-1.1h-1.1v-1.1h-1.1v-1.1h-1.1V667h-1.1v-1.1h-1.1v-1.1h-1.1v-1.1h-1.1v-1.1
				h-1.1v-1.1h-1.1v-1.1H950v-1.1h-1.1v-1.1h-1.1v-1.1h-1.1V656h-1.1v-1.1h-1.1v-1.1h-1.1v-1.1h-1.1v-1.1h-1.1v-1.1h-1.1v-1.1H939
				v-1.1h-1.1v-1.1h-1.1V646h-1.1v-1.1h-1.1v-1.1h-1.1v-1.1h-1.1v-1.1h-1.1v-1.1h-1.1v-1.1H929v-1.1h-1.1v-1.1h-1.1v-1.1h-1.1V635
				h-1.1v-1.1h-1.1v-1.1h-1.1v-1.1h-1.1v-1.1h-1.1v-1.1h-1.1v-1.1H918v-1.1h-1.1v-1.1h-1.1v-1.1h-1.1V624h-1.1v-1.1h-13.5v6.8h-2.2
				v17h0c0,0,0,0.1,0,0.1c0,2.5,1.2,4.8,3,6.4c0.3,0.4,0.7,0.8,1.1,1.1c0.3,0.4,0.7,0.8,1.1,1.1c0.3,0.4,0.7,0.8,1.1,1.1
				c0.3,0.4,0.7,0.8,1.1,1.1c0.3,0.4,0.7,0.8,1.1,1.1c0.2,0.3,0.5,0.5,0.7,0.8l0,8c0,0-0.1-0.1-0.1-0.1c-0.4-0.4-0.7-0.7-1.1-1.1
				c-0.4-0.4-0.7-0.7-1.1-1.1c-0.4-0.4-0.7-0.7-1.1-1.1c-0.4-0.4-0.7-0.7-1.1-1.1c-0.4-0.4-0.7-0.7-1.1-1.1
				c-0.4-0.4-0.7-0.7-1.1-1.1c-0.4-0.4-0.7-0.7-1.1-1.1c-0.4-0.4-0.7-0.7-1.1-1.1c-0.4-0.4-0.7-0.7-1.1-1.1
				c-0.4-0.4-0.7-0.7-1.1-1.1c-0.4-0.4-0.7-0.7-1.1-1.1c-0.4-0.4-0.7-0.7-1.1-1.1c-0.4-0.4-0.7-0.7-1.1-1.1
				c-0.4-0.4-0.7-0.7-1.1-1.1c-0.4-0.4-0.7-0.7-1.1-1.1c-0.4-0.4-0.7-0.7-1.1-1.1c-0.4-0.4-0.7-0.7-1.1-1.1
				c-0.4-0.4-0.7-0.7-1.1-1.1c-0.4-0.4-0.7-0.7-1.1-1.1c-0.4-0.4-0.7-0.7-1.1-1.1c-0.4-0.4-0.7-0.7-1.1-1.1
				c-0.4-0.4-0.7-0.7-1.1-1.1c-0.4-0.4-0.7-0.7-1.1-1.1c-0.4-0.4-0.7-0.7-1.1-1.1c-0.4-0.4-0.7-0.7-1.1-1.1
				c-0.4-0.4-0.7-0.7-1.1-1.1c-0.4-0.4-0.7-0.7-1.1-1.1c-0.4-0.4-0.7-0.7-1.1-1.1c-0.4-0.4-0.7-0.7-1.1-1.1
				c-0.4-0.4-0.7-0.7-1.1-1.1c-0.4-0.4-0.7-0.7-1.1-1.1c-0.4-0.4-0.7-0.7-1.1-1.1c-0.4-0.4-0.7-0.7-1.1-1.1
				c-0.4-0.4-0.7-0.7-1.1-1.1c-0.4-0.4-0.7-0.7-1.1-1.1c-3.8-4.1-9.2-6.7-15.3-6.7c-8.9,0-16.4,5.5-19.4,13.3h-6.1v5.5
				c-14.7,2.1-17.4,12.1-17.4,19.7c0,2.6-0.4,5.6-1,9h1.3c-0.1,0.4-0.1,0.7-0.2,1.1h1.3c0,0.1,0,0.2-0.1,0.3H809
				c-1.4,7.5-3.4,17.2-3.4,30.6c0,8.4,2.8,14,6.9,17.8c0.4,0.4,0.7,0.8,1.1,1.1c0.4,0.4,0.7,0.8,1.1,1.1c0.4,0.4,0.7,0.8,1.1,1.1
				c0.4,0.4,0.7,0.8,1.1,1.1c0.4,0.4,0.7,0.8,1.1,1.1c0.4,0.4,0.7,0.8,1.1,1.1c0.4,0.4,0.7,0.8,1.1,1.1c0.4,0.4,0.7,0.8,1.1,1.1
				c0.4,0.4,0.7,0.8,1.1,1.1c0.4,0.4,0.7,0.8,1.1,1.1c0.4,0.4,0.7,0.8,1.1,1.1c0.4,0.4,0.7,0.8,1.1,1.1c0.4,0.4,0.7,0.8,1.1,1.1
				c0.4,0.4,0.7,0.8,1.1,1.1c0.4,0.4,0.7,0.8,1.1,1.1c0.4,0.4,0.7,0.8,1.1,1.1c0.4,0.4,0.7,0.8,1.1,1.1c0.4,0.4,0.7,0.8,1.1,1.1
				c0.4,0.4,0.7,0.8,1.1,1.1c0.4,0.4,0.7,0.8,1.1,1.1c0.4,0.4,0.7,0.8,1.1,1.1c0.4,0.4,0.7,0.8,1.1,1.1c0.4,0.4,0.7,0.8,1.1,1.1
				c0.4,0.4,0.7,0.8,1.1,1.1c0.4,0.4,0.7,0.8,1.1,1.1c0.4,0.4,0.7,0.8,1.1,1.1c0.4,0.4,0.7,0.8,1.1,1.1c0.4,0.4,0.7,0.8,1.1,1.1
				c0.4,0.4,0.7,0.8,1.1,1.1c0.4,0.4,0.7,0.8,1.1,1.1c0.4,0.4,0.7,0.8,1.1,1.1c0.4,0.4,0.7,0.8,1.1,1.1c0.4,0.4,0.7,0.8,1.1,1.1
				c0.4,0.4,0.7,0.8,1.1,1.1c0.4,0.4,0.7,0.8,1.1,1.1c0.4,0.4,0.7,0.8,1.1,1.1c0.4,0.4,0.7,0.8,1.1,1.1c0.4,0.4,0.7,0.8,1.1,1.1
				c0.4,0.4,0.7,0.8,1.1,1.1c0.4,0.4,0.7,0.8,1.1,1.1c0.4,0.4,0.7,0.8,1.1,1.1c0.4,0.4,0.7,0.8,1.1,1.1c0.4,0.4,0.7,0.8,1.1,1.1
				c0.4,0.4,0.7,0.8,1.1,1.1c0.4,0.4,0.7,0.8,1.1,1.1c0.4,0.4,0.7,0.8,1.1,1.1c0.4,0.4,0.7,0.8,1.1,1.1c0.4,0.4,0.7,0.8,1.1,1.1
				c0.4,0.4,0.7,0.8,1.1,1.1c0.4,0.4,0.7,0.8,1.1,1.1c0.4,0.4,0.7,0.8,1.1,1.1c0.4,0.4,0.7,0.8,1.1,1.1c0.4,0.4,0.7,0.8,1.1,1.1
				c0.4,0.4,0.7,0.8,1.1,1.1c0.4,0.4,0.7,0.8,1.1,1.1c0.4,0.4,0.7,0.8,1.1,1.1c0.4,0.4,0.7,0.8,1.1,1.1c0.4,0.4,0.7,0.8,1.1,1.1
				c0.4,0.4,0.7,0.8,1.1,1.1c0.4,0.4,0.7,0.8,1.1,1.1c0.4,0.4,0.7,0.8,1.1,1.1c0.4,0.4,0.7,0.8,1.1,1.1c0.4,0.4,0.7,0.8,1.1,1.1
				c0.4,0.4,0.7,0.8,1.1,1.1c0.4,0.4,0.7,0.8,1.1,1.1c0.4,0.4,0.7,0.8,1.1,1.1c0.4,0.4,0.7,0.8,1.1,1.1c0.4,0.4,0.7,0.8,1.1,1.1
				c0.4,0.4,0.7,0.8,1.1,1.1c0.4,0.4,0.7,0.8,1.1,1.1c0.4,0.4,0.7,0.8,1.1,1.1c0.4,0.4,0.7,0.8,1.1,1.1c0.4,0.4,0.7,0.8,1.1,1.1
				c0.4,0.4,0.7,0.8,1.1,1.1c0.4,0.4,0.7,0.8,1.1,1.1c0.4,0.4,0.7,0.8,1.1,1.1c0.4,0.4,0.7,0.8,1.1,1.1c0.4,0.4,0.7,0.8,1.1,1.1
				c0.4,0.4,0.7,0.8,1.1,1.1c0.4,0.4,0.7,0.8,1.1,1.1c0.4,0.4,0.7,0.8,1.1,1.1c0.4,0.4,0.7,0.8,1.1,1.1c0.4,0.4,0.7,0.8,1.1,1.1
				c0.4,0.4,0.7,0.8,1.1,1.1c0.4,0.4,0.7,0.8,1.1,1.1c0.4,0.4,0.7,0.8,1.1,1.1c0.4,0.4,0.7,0.8,1.1,1.1c0.3,0.3,0.5,0.5,0.8,0.8
				C955.5,797.5,988.5,752.7,990,700.1z"/>
			<g>
				<path fill="#FFFFFF" d="M915.8,629.7h-2.2v-6.8h-13.5v6.8h-2.2v17h0c0,0,0,0.1,0,0.1c0,4.7,4,8.5,8.9,8.5c0.1,0,0.2,0,0.4,0
					l0,94.2c0,9.1-7.4,16.5-16.6,16.6c-9.1,0-16.5-7.4-16.6-16.6v-97.2h0V643c0-11.5-9.3-20.9-20.9-20.9c-8.9,0-16.4,5.5-19.4,13.3
					h-6.1v5.5c-14.7,2.1-17.4,12.1-17.4,19.7c0,2.6-0.4,5.6-1,9h20.1l0-4.5c0-2.2,1.6-4.1,3.8-4.4v-14.5V643v-2.5v0
					c0.2,0,0.5,0,0.7,0s0.5,0,0.7,0v0v2.5v3.2v14.5c2.1,0.3,3.8,2.2,3.8,4.4v4.5h20.1c-0.6-3.4-1-6.4-1-9c0-7.2-2.4-16.5-15-19.3
					v-5.9h-3.9c2.7-5.3,8.3-9,14.7-9c9.1,0,16.5,7.4,16.6,16.6v9.4v87.8v9.4c0,11.5,9.3,20.9,20.9,20.9c11.5,0,20.9-9.3,20.9-20.9
					v-95.5c2.5-1.5,4.2-4.2,4.2-7.2c0,0,0-0.1,0-0.1h0V629.7z M908.7,625.3h1.9v4.4h-1.9V625.3z M903.1,625.3h1.9v4.4h-1.9V625.3z"
					/>
				<path fill="#FFFFFF" d="M838.3,671.1v6.7c0,2.5-2,4.5-4.5,4.5c-2.5,0-4.5-2-4.5-4.5l0-6.7H809c-1.4,7.5-3.4,17.2-3.4,30.6
					c0,20.5,16.9,24.8,28.3,24.8c11.3,0,28.3-4.3,28.3-24.8c0-13.4-2-23.1-3.4-30.6H838.3z"/>
				<path fill="#FFFFFF" d="M836.9,677.8v-6.7v-1.4v-4.5c0-1.4-1-2.6-2.3-3c-0.2-0.1-0.5-0.1-0.7-0.1c-0.2,0-0.5,0-0.7,0.1
					c-1.3,0.3-2.3,1.5-2.3,3v4.5v1.4v6.7c0,1.7,1.4,3.1,3.1,3.1C835.5,680.8,836.9,679.5,836.9,677.8z"/>
			</g>
		</g>
		<g>
			<circle fill="#CBDB31" cx="860.7" cy="283.7" r="129.4"/>
			<path fill="#99A824" d="M989.4,296.8L989.4,296.8l-1-1.2l-0.2,0.1l-0.9-1.2l-0.2,0.1l-0.9-1.2l-0.2,0.1l-0.9-1.2l-0.2,0.1
				l-0.9-1.2l-0.2,0.1l-0.9-1.2l-0.2,0.1l-0.9-1.2l-0.2,0.1l-0.9-1.2l-0.2,0.1l-0.9-1.2l-0.2,0.1l-0.9-1.2l-0.2,0.1l-0.9-1.2
				l-0.2,0.1l-0.9-1.2l-0.2,0.1l-0.9-1.2l-0.2,0.1l-0.9-1.2l-0.2,0.1l-0.9-1.2l-0.2,0.1l-0.9-1.2l-0.2,0.1l-0.9-1.2l-0.2,0.1
				l-0.9-1.2l-0.2,0.1l-0.9-1.2l-0.2,0.1l-0.9-1.2l-0.2,0.1l-0.9-1.2l-0.2,0.1l-0.9-1.2l-0.2,0.1l-0.9-1.2l-0.2,0.1l-0.9-1.2
				l-0.2,0.1l-0.9-1.2l-0.2,0.1l-0.9-1.2l-0.2,0.1l-0.9-1.2l-0.2,0.1l-0.9-1.2l-0.2,0.1l-0.9-1.2l-0.2,0.1l-0.9-1.2l-0.2,0.1
				l-0.9-1.2l-0.2,0.1l-0.9-1.2l-0.2,0.1l-0.9-1.2l-0.2,0.1l-0.9-1.2l-0.2,0.1l-0.9-1.2l-0.2,0.1l-0.9-1.2l-0.2,0.1l-0.9-1.2
				l-0.2,0.1l-0.9-1.2l-0.2,0.1l-0.9-1.2l-0.2,0.1l-0.9-1.2l-0.2,0.1l-0.9-1.2l-0.2,0.1l-0.9-1.2l-0.2,0.1l-0.9-1.2l-0.2,0.1
				l-0.9-1.2l-0.2,0.1l-0.9-1.2l-0.2,0.1l-0.9-1.2l-0.2,0.1l-0.9-1.2l-0.2,0.1l-0.9-1.2l-0.2,0.1l-0.9-1.2l-0.2,0.1l-0.9-1.2
				l-0.2,0.1l-0.9-1.2l-0.2,0.1l-0.9-1.2l-0.2,0.1l-0.9-1.2l-0.2,0.1l-0.9-1.2l-0.2,0.1l-0.9-1.2l-0.2,0.1l-0.9-1.2l-0.2,0.1
				l-0.9-1.2l-0.2,0.1l-0.9-1.2l-0.2,0.1l-0.9-1.2l-0.2,0.1l-0.9-1.2l-0.2,0.1l-0.9-1.2l-0.2,0.1l-0.9-1.2l-0.2,0.1l-0.9-1.2
				l-0.2,0.1l-0.9-1.2l-0.2,0.1l-0.9-1.2l-18.3,14.1l-0.4-0.6l-0.2,0.1l-0.9-1.2l-0.2,0.1l-0.9-1.2l-0.2,0.1l-0.9-1.2l-13.1,10
				c0,0,0,0,0,0l-31,23.8l-57.1,43.8l-2.2,1.7c-3,2.3-3.6,6.6-1.3,9.6l12,15.6c0.3,0.4,0.7,0.8,1.2,1.2c0.3,0.4,0.7,0.8,1.1,1.1
				c0.3,0.4,0.7,0.8,1.1,1.1c0.3,0.4,0.7,0.8,1.1,1.1c0.3,0.4,0.7,0.8,1.1,1.1c0.3,0.4,0.7,0.8,1.1,1.1c0.3,0.4,0.7,0.8,1.1,1.1
				c0.3,0.4,0.7,0.8,1.1,1.1c0.3,0.4,0.7,0.8,1.1,1.1c0.3,0.4,0.7,0.8,1.1,1.1c0.3,0.4,0.7,0.8,1.1,1.1c0.3,0.4,0.7,0.8,1.1,1.1
				c0.3,0.4,0.7,0.8,1.1,1.1c0.3,0.4,0.7,0.8,1.1,1.1c0.3,0.4,0.7,0.8,1.1,1.1c0.3,0.4,0.7,0.8,1.1,1.1c0.3,0.4,0.7,0.8,1.1,1.1
				c0.3,0.4,0.7,0.8,1.1,1.1c0.3,0.4,0.7,0.8,1.1,1.1c0.3,0.4,0.7,0.8,1.1,1.1c0.3,0.4,0.7,0.8,1.1,1.1c0.3,0.4,0.7,0.8,1.1,1.1
				c0.3,0.4,0.7,0.8,1.1,1.1c0.3,0.4,0.7,0.8,1.1,1.1c0.3,0.4,0.7,0.8,1.1,1.1c0.3,0.4,0.7,0.8,1.1,1.1c0.3,0.4,0.7,0.8,1.1,1.1
				c0.3,0.4,0.7,0.8,1.1,1.1c0.3,0.4,0.7,0.8,1.1,1.1c0.3,0.4,0.7,0.8,1.1,1.1c0.3,0.4,0.7,0.8,1.1,1.1c0.3,0.4,0.7,0.8,1.1,1.1
				c0.3,0.4,0.7,0.8,1.1,1.1c0.3,0.4,0.7,0.8,1.1,1.1c0.3,0.4,0.7,0.8,1.1,1.1c0.3,0.4,0.7,0.8,1.1,1.1c0.3,0.4,0.7,0.8,1.1,1.1
				c0.3,0.4,0.7,0.8,1.1,1.1c0.3,0.4,0.7,0.8,1.1,1.1c0.3,0.4,0.7,0.8,1.1,1.1c0.3,0.4,0.7,0.8,1.1,1.1c0.3,0.4,0.7,0.8,1.1,1.1
				c0.3,0.4,0.7,0.8,1.1,1.1c0.3,0.4,0.7,0.8,1.1,1.1c0.3,0.4,0.7,0.8,1.1,1.1c0.3,0.4,0.7,0.8,1.1,1.1c0.3,0.4,0.7,0.8,1.1,1.1
				c0.3,0.4,0.7,0.8,1.1,1.1c0.3,0.4,0.7,0.8,1.1,1.1c0.3,0.4,0.7,0.8,1.1,1.1c0.3,0.4,0.7,0.8,1.1,1.1c0.3,0.4,0.7,0.8,1.1,1.1
				c0.3,0.4,0.7,0.8,1.1,1.1c0.3,0.4,0.7,0.8,1.1,1.1c0.3,0.4,0.7,0.8,1.1,1.1c0.3,0.4,0.7,0.8,1.1,1.1c0.3,0.4,0.7,0.8,1.1,1.1
				c0.3,0.4,0.7,0.8,1.1,1.1c0.3,0.4,0.7,0.8,1.1,1.1c0.3,0.4,0.7,0.8,1.1,1.1c0.3,0.4,0.7,0.8,1.1,1.1c0.3,0.4,0.7,0.8,1.1,1.1
				c0.3,0.4,0.7,0.8,1.1,1.1c0.3,0.4,0.7,0.8,1.1,1.1c0.3,0.4,0.7,0.8,1.1,1.1c0.2,0.3,0.5,0.6,0.8,0.8
				C935.7,405.3,983.3,357.2,989.4,296.8z"/>
			<path fill="#FFFFFF" d="M931.6,243l-13.8-18L899,239.4l-3.3-4.3l-13.1,10c0,0,0,0,0,0l-31,23.8l-57.1,43.8l-2.2,1.7
				c-3,2.3-3.6,6.6-1.3,9.6l12,15.6c2.3,3,6.6,3.6,9.6,1.3l2.2-1.7l101.1-77.5l-3.3-4.3L931.6,243z M844,295.9
				c-2.4-3.1-5.4-5.5-8.8-7l14.3-10.9l5.1-3.9l13.3,17.3l-5.1,3.9l-20.1,15.4l5.9-4.5C847.9,302.5,846.4,299,844,295.9z M827,295.2
				l-2.9,2.2c3.8,0.7,7.4,2.8,10,6.1c2.5,3.3,3.6,7.3,3.3,11.2l3.1-2.4c-0.6-3.6-2.1-7.2-4.5-10.3c-2.4-3.1-5.4-5.5-8.8-7l7.4-5.7
				l-6.4,4.9c3.8,0.7,7.4,2.7,10,6.1c2.6,3.3,3.6,7.3,3.3,11.2l-12.6,9.7l-13.3-17.3L827,295.2z M925.3,241.4l-7,5.4l-1.9-2.5l7-5.4
				L925.3,241.4z M917.8,231.5l1.9,2.5l-7,5.4l-1.9-2.5L917.8,231.5z"/>
		</g>
		<g>
			<circle fill="#34BBC6" cx="1165.4" cy="283.7" r="129.4"/>
			<path fill="#238B93" d="M1294,298c-0.2-0.3-0.5-0.5-0.9-0.8c-0.2-0.4-0.6-0.8-1.1-1.1c-0.2-0.4-0.6-0.8-1.1-1.1
				c-0.2-0.4-0.6-0.8-1.1-1.1c-0.2-0.4-0.6-0.8-1.1-1.1c-0.2-0.4-0.6-0.8-1.1-1.1c-0.2-0.4-0.6-0.8-1.1-1.1
				c-0.2-0.4-0.6-0.8-1.1-1.1c-0.2-0.4-0.6-0.8-1.1-1.1c-0.2-0.4-0.6-0.8-1.1-1.1c-0.2-0.4-0.6-0.8-1.1-1.1
				c-0.2-0.4-0.6-0.8-1.1-1.1c-0.2-0.4-0.6-0.8-1.1-1.1c-0.2-0.4-0.6-0.8-1.1-1.1c-0.2-0.4-0.6-0.8-1.1-1.1
				c-0.2-0.4-0.6-0.8-1.1-1.1c-0.2-0.4-0.6-0.8-1.1-1.1c-0.2-0.4-0.6-0.8-1.1-1.1c-0.2-0.4-0.6-0.8-1.1-1.1
				c-0.2-0.4-0.6-0.8-1.1-1.1c-0.2-0.4-0.6-0.8-1.1-1.1c-0.2-0.4-0.6-0.8-1.1-1.1c-0.2-0.4-0.6-0.8-1.1-1.1
				c-0.2-0.4-0.6-0.8-1.1-1.1c-0.2-0.4-0.6-0.8-1.1-1.1c-0.2-0.4-0.6-0.8-1.1-1.1c-0.2-0.4-0.6-0.8-1.1-1.1
				c-0.2-0.4-0.6-0.8-1.1-1.1c-0.2-0.4-0.6-0.8-1.1-1.1c-0.2-0.4-0.6-0.8-1.1-1.1c-0.2-0.4-0.6-0.8-1.1-1.1
				c-0.2-0.4-0.6-0.8-1.1-1.1c-0.2-0.4-0.6-0.8-1.1-1.1c-0.2-0.4-0.6-0.8-1.1-1.1c-0.2-0.4-0.6-0.8-1.1-1.1
				c-0.2-0.4-0.6-0.8-1.1-1.1c-0.2-0.4-0.6-0.8-1.1-1.1c-0.2-0.4-0.6-0.8-1.1-1.1c-0.2-0.4-0.6-0.8-1.1-1.1
				c-0.2-0.4-0.6-0.8-1.1-1.1c-0.2-0.4-0.6-0.8-1.1-1.1c-0.2-0.4-0.6-0.8-1.1-1.1c-0.2-0.4-0.6-0.8-1.1-1.1
				c-0.2-0.4-0.6-0.8-1.1-1.1c-0.2-0.4-0.6-0.8-1.1-1.1c-0.2-0.4-0.6-0.8-1.1-1.1c-0.2-0.4-0.6-0.8-1.1-1.1
				c-0.2-0.4-0.6-0.8-1.1-1.1c-0.2-0.4-0.6-0.8-1.1-1.1c-0.2-0.4-0.6-0.8-1.1-1.1c-0.2-0.4-0.6-0.8-1.1-1.1
				c-0.2-0.4-0.6-0.8-1.1-1.1c-0.2-0.4-0.6-0.8-1.1-1.1c-0.2-0.4-0.6-0.8-1.1-1.1c-0.2-0.4-0.6-0.8-1.1-1.1
				c-0.2-0.4-0.6-0.8-1.1-1.1c-0.2-0.4-0.6-0.8-1.1-1.1c-0.2-0.4-0.6-0.8-1.1-1.1c-0.2-0.4-0.6-0.8-1.1-1.1
				c-0.2-0.4-0.6-0.8-1.1-1.1c-0.2-0.4-0.6-0.8-1.1-1.1c-0.2-0.4-0.6-0.8-1.1-1.1c-0.2-0.4-0.6-0.8-1.1-1.1
				c-0.2-0.4-0.6-0.8-1.1-1.1c-0.2-0.4-0.6-0.8-1.1-1.1c-0.2-0.4-0.6-0.8-1.1-1.1c-0.2-0.4-0.6-0.8-1.1-1.1
				c-0.2-0.4-0.6-0.8-1.1-1.1c-0.2-0.4-0.6-0.8-1.1-1.1c-0.2-0.4-0.6-0.8-1.1-1.1c-0.2-0.4-0.6-0.8-1.1-1.1
				c-0.2-0.4-0.6-0.8-1.1-1.1c-0.2-0.4-0.6-0.8-1.1-1.1c-0.2-0.4-0.6-0.8-1.1-1.1c-0.2-0.4-0.6-0.8-1.1-1.1
				c-0.2-0.4-0.6-0.8-1.1-1.1c-0.2-0.4-0.6-0.8-1.1-1.1c-0.2-0.4-0.6-0.8-1.1-1.1c-0.2-0.4-0.6-0.8-1.1-1.1
				c-0.2-0.4-0.6-0.8-1.1-1.1c-0.2-0.4-0.6-0.8-1.1-1.1c-0.2-0.4-0.6-0.8-1.1-1.1c-0.2-0.4-0.6-0.8-1.1-1.1
				c-0.2-0.4-0.6-0.8-1.1-1.1c-0.2-0.4-0.6-0.8-1.1-1.1c-0.2-0.4-0.6-0.8-1.1-1.1c-0.2-0.4-0.6-0.8-1.1-1.1
				c-0.2-0.4-0.6-0.8-1.1-1.1c-0.2-0.4-0.6-0.8-1.1-1.1c-1.2-2-6.9-3.8-12.1-3.9c-0.3-0.1-0.6-0.2-0.9-0.2c-1.5,0-2.7,1.2-2.7,2.7
				v11.4c0,1,0.6,1.9,1.4,2.4c0.3,0.5,0.6,0.9,1.1,1.1c0.3,0.5,0.6,0.9,1.1,1.1c0.3,0.5,0.6,0.9,1.1,1.1c0.3,0.5,0.6,0.9,1.1,1.1
				c0.3,0.5,0.6,0.9,1.1,1.1c0.3,0.5,0.6,0.9,1.1,1.1c0.3,0.5,0.6,0.9,1.1,1.1c0.3,0.5,0.6,0.9,1.1,1.1c0.3,0.5,0.6,0.9,1.1,1.1
				c0.2,0.3,0.4,0.6,0.7,0.9c0,2.2,0,3.7,0,3.7s0,0.1,0.1,0.2c0,4.8,0,13.8,0,24.8c-1.4,0.6-2.3,2-2.3,3.5v7.7
				c0,1.3,0.7,2.5,1.7,3.2c0.2,0.3,0.4,0.5,0.6,0.7c0,7.4,0,15.2,0,23c-0.2-0.2-0.4-0.4-0.6-0.6c-0.3-0.4-0.7-0.8-1.1-1.1
				c-0.3-0.4-0.7-0.8-1.1-1.1c-0.3-0.4-0.7-0.8-1.1-1.1c-0.3-0.4-0.7-0.8-1.1-1.1c-0.3-0.4-0.7-0.8-1.1-1.1
				c-0.3-0.4-0.7-0.8-1.1-1.1c-0.3-0.4-0.7-0.8-1.1-1.1c-0.3-0.4-0.7-0.8-1.1-1.1c-0.3-0.4-0.7-0.8-1.1-1.1
				c-0.3-0.4-0.7-0.8-1.1-1.1c-0.3-0.4-0.7-0.8-1.1-1.1c-0.3-0.4-0.7-0.8-1.1-1.1c-0.3-0.4-0.7-0.8-1.1-1.1
				c-0.3-0.4-0.7-0.8-1.1-1.1c-0.3-0.4-0.7-0.8-1.1-1.1c-0.3-0.4-0.7-0.8-1.1-1.1c-0.3-0.4-0.7-0.8-1.1-1.1
				c-0.3-0.4-0.7-0.8-1.1-1.1c-0.3-0.4-0.7-0.8-1.1-1.1c-0.3-0.4-0.7-0.8-1.1-1.1c-0.3-0.4-0.7-0.8-1.1-1.1
				c-0.3-0.4-0.7-0.8-1.1-1.1c-0.3-0.4-0.7-0.8-1.1-1.1c-2-2.3-4.9-3.6-8.5-3.5c-3.9,0-7.1,1.2-9.2,3.9c-2,2.6-2.9,6.3-2.9,11
				c0,9,0,14.1,0,14.1h-1v4.4h-31.6v65.3h1.1v1.1h1.1v1.1h1.1v1.1h1.1v1.1h1.1v1.1h1.1v1.1h1.1v1.1h1.1v1.1h1.1v1.1h1.1v1.1h1.1v1.1
				h1.1v1.1h1.1v1.1h1.1v1.1h1.1v1.1h1.1v1.1h1.1v1.1h1.1v1.1h1.1v1.1h1.1v1.1h1.1v1.1h1.1v1.1h1.1v1.1h1.1v1.1h1.1v1.1h1.1v1.1h1.1
				v1.1h1.1v1.1h1.1v1.1h1.1v1.1h1.1v1.1h1.1v1.1h1.1v1.1h1.1v1.1h1.1v1.1h1.1v1.1h1.1v1.1h1.1v1.1h1.1v1.1h1.1v1.1h1.1v1.1h1.1v1.1
				h1.1v1.1h1.1v1.1h1.1v1.1h1.1v1.1h1.1v1.1h1.1v1.1h1.1v0.5C1233.2,412,1287,362,1294,298z M1185.4,197.4L1185.4,197.4
				c-0.1,0.1-0.2,0.1-0.2,0.1c-0.1,0-0.3-0.1-0.4-0.1v-0.2h0.4h0.2V197.4z"/>
			<g>
				<path fill="#FFFFFF" d="M1133.3,328.5c-5,0-9,4-9,9c0,5,4,9,9,9c5,0,9-4,9-9C1142.3,332.5,1138.3,328.5,1133.3,328.5z
					 M1133.3,342.3c-2.7,0-4.9-2.2-4.9-4.9c0-2.7,2.2-4.9,4.9-4.9c2.7,0,4.9,2.2,4.9,4.9C1138.2,340.2,1136,342.3,1133.3,342.3z"/>
				<path fill="#FFFFFF" d="M1196.4,246c1.3-0.9,18.3-13.3,20.2-14.7c1.9-1.4-0.1-7.9-3.5-12.7c-0.1-0.3-0.2-0.6-0.4-0.8
					c-0.9-1.2-2.6-1.5-3.8-0.6l-9.2,6.7c-1.2,0.9-1.5,2.6-0.6,3.8c0.1,0.2,0.3,0.3,0.4,0.5l-0.1,0c0,0,2.9,3.4,4.2,2.5
					c1.3-0.9,4.9-4.4,6.2-2.6c1.3,1.8,0.6,2.9-3.2,5.6c-2.5,1.8-7.7,5.6-10.9,7.9c0-5.5,0-10.1,0-13.2c1.2-0.2,0.6-1.1,0.6-2.5
					c0-1.6,0-22.6,0-25c0-2.4-6.5-4.5-12.3-4.6c-0.3-0.1-0.6-0.2-0.9-0.2c-1.5,0-2.7,1.2-2.7,2.7v11.4c0,1.5,1.2,2.7,2.7,2.7
					c0.2,0,0.4,0,0.6-0.1v0.1c0,0,4.5-0.3,4.5-1.9c0-1.6-0.6-6.5,1.6-6.5c2.2,0,2.7,1.3,2.7,5.9c0,4.6,0,16.7,0,16.7s0,0.1,0.1,0.2
					c0,4.8,0,13.8,0,24.8c-1.4,0.6-2.3,2-2.3,3.5v7.7c0,1.6,1,2.9,2.3,3.5c0,37.5,0,86.4,0,90.3c0,2.9-0.6,5.6-2.1,7.5
					c-1.5,1.9-4.1,3.3-9,3.3c-4.9,0-7.4-1.3-8.8-3c-1.4-1.7-2-4.3-2-7.2c0-6.2-0.8-72.3-0.8-81.2c0-4.7-0.8-8.5-2.7-11.3
					c-1.9-2.8-5.2-4.4-9.1-4.4c-3.9,0-7.1,1.2-9.2,3.9c-2,2.6-2.9,6.3-2.9,11c0,9,0,14.1,0,14.1h-1v4.4h-31.6v65.3h39.6v-65.3h-3.9
					v-4.4h0c0,0,0-5.1,0-14.1c0-4.3,0.8-7.3,2.2-9.1c1.4-1.8,3.4-2.7,6.8-2.7c3.2,0,5.2,1.1,6.6,3c1.4,2,2.2,5.2,2.2,9.6
					c0,9,0.8,75.1,0.8,81.2c0,3.2,0.5,6.6,2.7,9.2c2.2,2.6,5.8,4.2,11.2,4.2c0,0,0.1,0,0.1,0c5.4,0,9.1-1.7,11.2-4.4
					c2.2-2.7,2.8-6.2,2.8-9.4c0-3.9,0-52.8,0-90.3c1.4-0.6,2.3-1.9,2.3-3.5v-7.7c0-1.6-1-2.9-2.3-3.5c0-2,0-3.8,0-5.7
					C1195.9,246.3,1196.2,246.1,1196.4,246z M1213.1,220l0.1,0.2l-0.2,0.1l-11.4,8.3l-0.4-0.5l11.6-8.4L1213.1,220z M1185.4,197.2
					v0.2v14.1h-0.6v-14.3h0.4H1185.4z M1133.3,304.3c3.1,0,5.5,2.5,5.5,5.5c0,3.1-2.5,5.5-5.5,5.5c-3.1,0-5.5-2.5-5.5-5.5
					C1127.8,306.8,1130.3,304.3,1133.3,304.3z M1133.3,352.9c-8.5,0-15.4-6.9-15.4-15.4s6.9-15.4,15.4-15.4
					c8.5,0,15.4,6.9,15.4,15.4S1141.8,352.9,1133.3,352.9z"/>
			</g>
		</g>
	</g>
</g>
</svg>
